<?xml version="1.0" encoding="UTF-8" standalone="no"?>
<svg
   width="500mm"
   height="500mm"
   viewBox="0 0 500 500"
   version="1.1"
   id="svg1"
   xmlns="http://www.w3.org/2000/svg">
   <g
     id="layer1">
     <g
       id="g4">
       <g
         fill="#f5f5f6"
         id="g14">
         <g
           id="g5">
           <g
             fill="#f8000f"
             id="g2">
             <path
               d="m 315.2,288.2 c -8.5,-2.7 -15.3,-10.8 -16.8,-20 -1.4,-9.1 6.3,-21.3 15.2,-24 11.2,-3.3 21,0.3 27.5,10.2 2.9,4.4 3.3,5.9 3.3,11.6 0.1,16.1 -14.1,26.9 -29.2,22.2 z"
               id="path2" />
           </g>
           <path
             d="M 221.80999,355.93112 C 170.15093,348.03118 121.80101,309.47191 99.924038,259.06274 80.436998,213.7321 83.010767,153.91823 106.17461,111.78519 c 13.23648,-23.887927 37.13568,-49.844892 57.17425,-61.882899 27.39216,-16.740359 53.68129,-23.887923 86.03713,-23.699825 46.14385,0.376182 81.80882,15.235596 113.98082,47.775852 13.97185,14.107042 27.02449,33.292622 34.74577,51.349632 5.88289,13.54276 12.13345,36.67831 10.47889,38.37117 -1.28689,1.50475 -15.44257,-1.69286 -32.72353,-7.33567 -14.89104,-4.70235 -23.53153,-11.84991 -37.68721,-31.0355 -16.91328,-23.13555 -36.95185,-36.866407 -64.52785,-44.013977 -21.50928,-5.642815 -39.52561,-4.326157 -62.87329,4.138071 -15.07489,5.642815 -25.36993,12.414203 -38.23873,25.016486 -19.67089,19.18559 -29.59825,39.68782 -33.82657,69.78285 -3.6768,26.89744 4.596,55.8639 23.71536,81.82087 10.11121,13.91894 22.42849,23.69983 40.8125,32.72834 17.83247,8.65232 30.14976,11.09754 51.47521,10.15707 15.07488,-0.75237 20.40624,-1.88094 36.03264,-8.27613 15.44256,-6.2071 20.40625,-7.33566 31.2528,-7.14757 14.52337,0 46.87922,9.0285 46.87922,13.16658 0,1.12856 -5.69904,7.71185 -12.68497,14.29514 -33.45888,31.59978 -84.93409,46.64729 -134.38706,38.93544 z"
             id="path13"
             style="fill:#f9f9f9" />
           <path
             d="m 229.1636,266.5865 c -27.75985,-7.71185 -47.24689,-29.34266 -54.41666,-60.37816 -11.39808,-49.84489 37.31953,-101.00644 86.22097,-90.84936 31.06898,6.58328 51.47521,25.20459 60.48338,55.11151 16.72944,56.61628 -36.03265,111.53971 -92.28769,96.11601 z"
             id="path14"
             style="fill:#f9f9f9" />
         </g>
       </g>
     </g>
   </g>
</svg>
